<svg version="1.1" viewBox="0.0 0.0 122.99475065616798 122.99475065616798" fill="none" stroke="none" stroke-linecap="square" stroke-miterlimit="10" xmlns:xlink="http://www.w3.org/1999/xlink" xmlns="http://www.w3.org/2000/svg"><clipPath id="p.0"><path d="m0 0l122.99475 0l0 122.99475l-122.99475 0l0 -122.99475z" clip-rule="nonzero"/></clipPath><g clip-path="url(#p.0)"><path fill="#000000" fill-opacity="0.0" d="m0 0l122.99475 0l0 122.99475l-122.99475 0z" fill-rule="evenodd"/><path fill="#000000" fill-opacity="0.0" d="m6.723191 61.375328l0 0c0 -30.34522 24.59966 -54.94488 54.94488 -54.94488l0 0c14.572292 0 28.547733 5.788819 38.851902 16.092983c10.304161 10.304165 16.09298 24.27961 16.09298 38.8519l0 0c0 30.345222 -24.599663 54.944885 -54.94488 54.944885l0 0c-30.34522 0 -54.94488 -24.599663 -54.94488 -54.944885z" fill-rule="evenodd"/><path stroke="#000000" stroke-width="12.0" stroke-linejoin="round" stroke-linecap="butt" d="m6.723191 61.375328l0 0c0 -30.34522 24.59966 -54.94488 54.94488 -54.94488l0 0c14.572292 0 28.547733 5.788819 38.851902 16.092983c10.304161 10.304165 16.09298 24.27961 16.09298 38.8519l0 0c0 30.345222 -24.599663 54.944885 -54.94488 54.944885l0 0c-30.34522 0 -54.94488 -24.599663 -54.94488 -54.944885z" fill-rule="evenodd"/><path fill="#000000" fill-opacity="0.0" d="m-31.236221 50.46194l185.82677 0l0 21.82677l-185.82677 0z" fill-rule="evenodd"/><path fill="#000000" d="m36.336456 47.031578l0 26.34375l-6.859375 0l0 -11.0625l-2.046875 0l0 11.0625l-6.859375 0l0 -26.34375l6.859375 0l0 9.421875l2.046875 0l0 -9.421875l6.859375 0zm2.7373505 0l11.4375 0l0 5.265625l-4.578125 0l0 5.0l4.28125 0l0 5.015625l-4.28125 0l0 5.796875l5.03125 0l0 5.265625l-11.890625 0l0 -26.34375zm25.692505 0l3.921875 26.34375l-7.015625 0l-0.34375 -4.734375l-2.453125 0l-0.40625 4.734375l-7.09375 0l3.46875 -26.34375l9.921875 0zm-3.640625 16.9375q-0.515625 -4.46875 -1.03125 -11.046875q-1.046875 7.546875 -1.3125 11.046875l2.34375 0zm8.721313 -16.9375l5.140625 0q4.953125 0 6.703125 0.453125q1.75 0.453125 2.65625 1.5q0.921875 1.03125 1.140625 2.3125q0.234375 1.28125 0.234375 5.03125l0 9.21875q0 3.546875 -0.34375 4.75q-0.328125 1.1875 -1.15625 1.875q-0.828125 0.671875 -2.046875 0.9375q-1.21875 0.265625 -3.671875 0.265625l-8.65625 0l0 -26.34375zm6.859375 4.5l0 17.34375q1.484375 0 1.8125 -0.59375q0.34375 -0.609375 0.34375 -3.234375l0 -10.234375q0 -1.796875 -0.109375 -2.296875q-0.109375 -0.5 -0.515625 -0.734375q-0.40625 -0.25 -1.53125 -0.25zm26.093475 3.46875l-6.375 0l0 -1.953125q0 -1.359375 -0.25 -1.734375q-0.234375 -0.375 -0.796875 -0.375q-0.625 0 -0.953125 0.5q-0.3125 0.5 -0.3125 1.53125q0 1.3125 0.359375 1.984375q0.34375 0.671875 1.9375 1.609375q4.578125 2.71875 5.765625 4.453125q1.1875 1.75 1.1875 5.625q0 2.8125 -0.65625 4.15625q-0.65625 1.328125 -2.546875 2.234375q-1.890625 0.890625 -4.390625 0.890625q-2.75 0 -4.703125 -1.03125q-1.9375 -1.046875 -2.546875 -2.65625q-0.59375 -1.609375 -0.59375 -4.578125l0 -1.71875l6.359375 0l0 3.203125q0 1.484375 0.265625 1.90625q0.265625 0.421875 0.953125 0.421875q0.6875 0 1.015625 -0.53125q0.328125 -0.546875 0.328125 -1.59375q0 -2.328125 -0.625 -3.046875q-0.65625 -0.71875 -3.203125 -2.390625q-2.5625 -1.703125 -3.390625 -2.453125q-0.828125 -0.765625 -1.375 -2.109375q-0.546875 -1.359375 -0.546875 -3.46875q0 -3.015625 0.765625 -4.421875q0.78125 -1.40625 2.5 -2.1875q1.734375 -0.796875 4.171875 -0.796875q2.671875 0 4.546875 0.875q1.875 0.859375 2.484375 2.171875q0.625 1.296875 0.625 4.4375l0 1.046875z" fill-rule="nonzero"/></g></svg>