<svg version="1.1" viewBox="0.0 0.0 504.9685039370079 401.8608923884514" fill="none" stroke="none" stroke-linecap="square" stroke-miterlimit="10" xmlns:xlink="http://www.w3.org/1999/xlink" xmlns="http://www.w3.org/2000/svg"><clipPath id="p.0"><path d="m0 0l504.9685 0l0 401.8609l-504.9685 0l0 -401.8609z" clip-rule="nonzero"/></clipPath><g clip-path="url(#p.0)"><path fill="#000000" fill-opacity="0.0" d="m0 0l504.9685 0l0 401.8609l-504.9685 0z" fill-rule="evenodd"/><path fill="#ffffff" d="m0 66.977715l0 0c0 -36.99077 29.986946 -66.977715 66.977715 -66.977715l371.02094 0c17.76361 0 34.799652 7.0565605 47.360413 19.61732c12.5607605 12.560759 19.61731 29.596804 19.61731 47.360397l0 267.90283c0 36.990753 -29.986938 66.97772 -66.97772 66.97772l-371.02094 0l0 0c-36.99077 0 -66.977715 -29.986969 -66.977715 -66.97772z" fill-rule="evenodd"/><path stroke="#ffffff" stroke-width="1.0" stroke-linejoin="round" stroke-linecap="butt" d="m0 66.977715l0 0c0 -36.99077 29.986946 -66.977715 66.977715 -66.977715l371.02094 0c17.76361 0 34.799652 7.0565605 47.360413 19.61732c12.5607605 12.560759 19.61731 29.596804 19.61731 47.360397l0 267.90283c0 36.990753 -29.986938 66.97772 -66.97772 66.97772l-371.02094 0l0 0c-36.99077 0 -66.977715 -29.986969 -66.977715 -66.97772z" fill-rule="evenodd"/><path fill="#000000" d="m53.271652 118.865715l0 0c0 -24.359001 19.746872 -44.105873 44.105873 -44.105873l310.21344 0c11.697601 0 22.916107 4.646858 31.187561 12.918312c8.271454 8.271454 12.918304 19.489952 12.918304 31.187561l0 176.41818c0 24.358978 -19.746857 44.105865 -44.105865 44.105865l-310.21344 0c-24.359001 0 -44.105873 -19.746887 -44.105873 -44.105865z" fill-rule="evenodd"/><path stroke="#000000" stroke-width="1.0" stroke-linejoin="round" stroke-linecap="butt" d="m53.271652 118.865715l0 0c0 -24.359001 19.746872 -44.105873 44.105873 -44.105873l310.21344 0c11.697601 0 22.916107 4.646858 31.187561 12.918312c8.271454 8.271454 12.918304 19.489952 12.918304 31.187561l0 176.41818c0 24.358978 -19.746857 44.105865 -44.105865 44.105865l-310.21344 0c-24.359001 0 -44.105873 -19.746887 -44.105873 -44.105865z" fill-rule="evenodd"/><path fill="#000000" fill-opacity="0.0" d="m449.72964 62.462273l-197.24408 173.63779l-197.2441 -173.63779z" fill-rule="evenodd"/><path stroke="#ffffff" stroke-width="24.0" stroke-linejoin="round" stroke-linecap="butt" d="m449.72964 62.462273l-197.24408 173.63779l-197.2441 -173.63779z" fill-rule="evenodd"/></g></svg>