<svg version="1.1" viewBox="0.0 0.0 659.2283464566929 556.1837270341207" fill="none" stroke="none" stroke-linecap="square" stroke-miterlimit="10" xmlns:xlink="http://www.w3.org/1999/xlink" xmlns="http://www.w3.org/2000/svg"><clipPath id="p.0"><path d="m0 0l659.22833 0l0 556.1837l-659.22833 0l0 -556.1837z" clip-rule="nonzero"/></clipPath><g clip-path="url(#p.0)"><path fill="#000000" fill-opacity="0.0" d="m0 0l659.22833 0l0 556.1837l-659.22833 0z" fill-rule="evenodd"/><path fill="#fff2cc" d="m36.65551 555.52496c19.15276 0 34.67914 -15.526428 34.67914 -34.67914l-34.67914 0c9.576382 0 17.33957 -7.7631836 17.33957 -17.3396c0 -9.5763855 -7.7631874 -17.33957 -17.33957 -17.33957l34.67914 0l0 -450.82874l0 0c0 -19.152756 15.526375 -34.67913 34.67913 -34.67913l516.559 0c19.152771 0 34.67914 15.526377 34.67914 34.67913c0 19.15276 -15.526367 34.679134 -34.67914 34.679134l-34.67914 0l0 450.82877c0 19.15271 -15.526367 34.67914 -34.67914 34.67914zm104.03741 -520.187l0 0c0 19.15276 -15.526382 34.679134 -34.67914 34.679134c-9.576378 0 -17.33957 -7.7631874 -17.33957 -17.339565c0 -9.576378 7.763191 -17.33957 17.33957 -17.33957z" fill-rule="evenodd"/><path fill="#cbc1a3" d="m140.69292 35.337925l0 0c0 19.15276 -15.526382 34.679134 -34.67914 34.679134c-9.576378 0 -17.33957 -7.7631874 -17.33957 -17.339565c0 -9.576378 7.763191 -17.33957 17.33957 -17.33957zm-69.35827 485.5079c0 19.15271 -15.526379 34.67914 -34.67914 34.67914c-19.152756 0 -34.67913 -15.526428 -34.67913 -34.67914c0 -19.152771 15.526377 -34.67917 34.67913 -34.67917l0 0c9.576382 0 17.33957 7.7631836 17.33957 17.33957c0 9.576416 -7.7631874 17.3396 -17.33957 17.3396z" fill-rule="evenodd"/><path fill="#000000" fill-opacity="0.0" d="m71.33465 486.16666l0 -450.82874l0 0c0 -19.152756 15.526375 -34.67913 34.67913 -34.67913l516.559 0c19.152771 0 34.67914 15.526377 34.67914 34.67913c0 19.15276 -15.526367 34.679134 -34.67914 34.679134l-34.67914 0l0 450.82877c0 19.15271 -15.526367 34.67914 -34.67914 34.67914l-516.559 0c-19.152756 0 -34.67913 -15.526428 -34.67913 -34.67914c0 -19.152771 15.526377 -34.67917 34.67913 -34.67917zm34.67913 -485.50787l0 0c19.152756 0 34.67914 15.526377 34.67914 34.67913c0 19.15276 -15.526382 34.679134 -34.67914 34.679134c-9.576378 0 -17.33957 -7.7631874 -17.33957 -17.339565c0 -9.576378 7.763191 -17.33957 17.33957 -17.33957l34.67914 0m447.20074 34.679134l-481.87988 0m-69.35827 416.1496l0 0c9.576382 0 17.33957 7.7631836 17.33957 17.33957c0 9.576416 -7.7631874 17.3396 -17.33957 17.3396l34.67914 0m-34.67914 34.67914c19.15276 0 34.67914 -15.526428 34.67914 -34.67914l0 -34.67917" fill-rule="evenodd"/><path stroke="#000000" stroke-width="1.0" stroke-linejoin="round" stroke-linecap="butt" d="m71.33465 486.16666l0 -450.82874l0 0c0 -19.152756 15.526375 -34.67913 34.67913 -34.67913l516.559 0c19.152771 0 34.67914 15.526377 34.67914 34.67913c0 19.15276 -15.526367 34.679134 -34.67914 34.679134l-34.67914 0l0 450.82877c0 19.15271 -15.526367 34.67914 -34.67914 34.67914l-516.559 0c-19.152756 0 -34.67913 -15.526428 -34.67913 -34.67914c0 -19.152771 15.526377 -34.67917 34.67913 -34.67917zm34.67913 -485.50787l0 0c19.152756 0 34.67914 15.526377 34.67914 34.67913c0 19.15276 -15.526382 34.679134 -34.67914 34.679134c-9.576378 0 -17.33957 -7.7631874 -17.33957 -17.339565c0 -9.576378 7.763191 -17.33957 17.33957 -17.33957l34.67914 0m447.20074 34.679134l-481.87988 0m-69.35827 416.1496l0 0c9.576382 0 17.33957 7.7631836 17.33957 17.33957c0 9.576416 -7.7631874 17.3396 -17.33957 17.3396l34.67914 0m-34.67914 34.67914c19.15276 0 34.67914 -15.526428 34.67914 -34.67914l0 -34.67917" fill-rule="evenodd"/><path fill="#000000" d="m102.38058 109.64567l0 0c0 -5.470665 4.4348526 -9.90551 9.90551 -9.90551l214.45668 0c2.6271057 0 5.146637 1.0436096 7.0042725 2.9012604c1.8576355 1.8576431 2.901245 4.377144 2.901245 7.0042496l0 0l0 0c0 5.470665 -4.434845 9.90551 -9.905518 9.90551l-214.45668 0c-5.4706573 0 -9.90551 -4.434845 -9.90551 -9.90551z" fill-rule="evenodd"/><path fill="#000000" d="m102.38058 189.64568l0 0c0 -5.4706726 4.4348526 -9.905518 9.90551 -9.905518l214.45668 0c2.6271057 0 5.146637 1.0436096 7.0042725 2.9012604c1.8576355 1.8576355 2.901245 4.3771515 2.901245 7.004257l0 0l0 0c0 5.4706573 -4.434845 9.905502 -9.905518 9.905502l-214.45668 0c-5.4706573 0 -9.90551 -4.434845 -9.90551 -9.905502z" fill-rule="evenodd"/><path fill="#000000" d="m102.38058 149.64568l0 0c0 -5.4706726 4.4348526 -9.905518 9.90551 -9.905518l214.45668 0c2.6271057 0 5.146637 1.0436096 7.0042725 2.9012604c1.8576355 1.8576355 2.901245 4.3771515 2.901245 7.004257l0 0l0 0c0 5.4706573 -4.434845 9.905502 -9.905518 9.905502l-214.45668 0c-5.4706573 0 -9.90551 -4.434845 -9.90551 -9.905502z" fill-rule="evenodd"/><path fill="#000000" d="m102.38058 229.64568l0 0c0 -5.4706726 4.4348526 -9.905518 9.90551 -9.905518l214.45668 0c2.6271057 0 5.146637 1.0436096 7.0042725 2.9012604c1.8576355 1.8576355 2.901245 4.3771515 2.901245 7.004257l0 0l0 0c0 5.4706573 -4.434845 9.905502 -9.905518 9.905502l-214.45668 0c-5.4706573 0 -9.90551 -4.434845 -9.90551 -9.905502z" fill-rule="evenodd"/><path fill="#000000" d="m102.38058 269.64566l0 0c0 -5.470642 4.4348526 -9.905518 9.90551 -9.905518l214.45668 0c2.6271057 0 5.146637 1.0436401 7.0042725 2.9012756c1.8576355 1.8576355 2.901245 4.377136 2.901245 7.004242l0 0l0 0c0 5.4706726 -4.434845 9.905518 -9.905518 9.905518l-214.45668 0c-5.4706573 0 -9.90551 -4.434845 -9.90551 -9.905518z" fill-rule="evenodd"/><path fill="#000000" d="m102.38058 309.64566l0 0c0 -5.470642 4.4348526 -9.905518 9.90551 -9.905518l437.29138 0c2.6270752 0 5.1466064 1.0436401 7.0042114 2.9012756c1.857666 1.8576355 2.901245 4.377136 2.901245 7.004242l0 0l0 0c0 5.4706726 -4.4348145 9.905518 -9.905457 9.905518l-437.29138 0c-5.4706573 0 -9.90551 -4.434845 -9.90551 -9.905518z" fill-rule="evenodd"/><path fill="#000000" d="m102.38058 349.64566l0 0c0 -5.470642 4.4348526 -9.905518 9.90551 -9.905518l437.29138 0c2.6270752 0 5.1466064 1.0436401 7.0042114 2.9012756c1.857666 1.8576355 2.901245 4.377136 2.901245 7.004242l0 0l0 0c0 5.4706726 -4.4348145 9.905518 -9.905457 9.905518l-437.29138 0c-5.4706573 0 -9.90551 -4.434845 -9.90551 -9.905518z" fill-rule="evenodd"/><path fill="#000000" d="m102.38058 389.64566l0 0c0 -5.470642 4.4348526 -9.905518 9.90551 -9.905518l437.29138 0c2.6270752 0 5.1466064 1.0436401 7.0042114 2.9012756c1.857666 1.8576355 2.901245 4.377136 2.901245 7.004242l0 0l0 0c0 5.4706726 -4.4348145 9.905518 -9.905457 9.905518l-437.29138 0c-5.4706573 0 -9.90551 -4.434845 -9.90551 -9.905518z" fill-rule="evenodd"/><path fill="#000000" d="m102.38058 429.64566l0 0c0 -5.470642 4.4348526 -9.905518 9.90551 -9.905518l437.29138 0c2.6270752 0 5.1466064 1.0436401 7.0042114 2.9012756c1.857666 1.8576355 2.901245 4.377136 2.901245 7.004242l0 0l0 0c0 5.4706726 -4.4348145 9.905518 -9.905457 9.905518l-437.29138 0c-5.4706573 0 -9.90551 -4.434845 -9.90551 -9.905518z" fill-rule="evenodd"/><path fill="#000000" d="m102.38058 469.64566l0 0c0 -5.470642 4.4348526 -9.905518 9.90551 -9.905518l437.29138 0c2.6270752 0 5.1466064 1.0436401 7.0042114 2.9012756c1.857666 1.8576355 2.901245 4.377136 2.901245 7.004242l0 0l0 0c0 5.4706726 -4.4348145 9.905518 -9.905457 9.905518l-437.29138 0c-5.4706573 0 -9.90551 -4.434845 -9.90551 -9.905518z" fill-rule="evenodd"/><path fill="#000000" d="m102.38058 509.64566l0 0c0 -5.470642 4.4348526 -9.905518 9.90551 -9.905518l437.29138 0c2.6270752 0 5.1466064 1.0436401 7.0042114 2.9012756c1.857666 1.8576355 2.901245 4.377136 2.901245 7.004242l0 0l0 0c0 5.4706726 -4.4348145 9.905548 -9.905457 9.905548l-437.29138 0c-5.4706573 0 -9.90551 -4.4348755 -9.90551 -9.905548z" fill-rule="evenodd"/><path fill="#000000" d="m353.39108 108.85298l0 0c0 -5.032875 4.079956 -9.1128235 9.1128235 -9.1128235l187.85309 0c2.41687 0 4.734741 0.96009827 6.4437256 2.6690826c1.7089844 1.7089844 2.6690674 4.0268707 2.6690674 6.443741l0 161.58537c0 5.0328674 -4.079895 9.1128235 -9.112793 9.1128235l-187.85309 0l0 0c-5.0328674 0 -9.1128235 -4.079956 -9.1128235 -9.1128235z" fill-rule="evenodd"/></g></svg>
